<mxfile host="app.diagrams.net" agent="Mozilla/5.0 (Windows NT 10.0; Win64; x64) AppleWebKit/537.36 (KHTML, like Gecko) Chrome/131.0.0.0 Safari/537.36" version="25.0.3">
  <diagram name="第 1 页" id="Aw2jdSEUTfqJSHIj9VZG">
    <mxGraphModel dx="969" dy="421" grid="0" gridSize="10" guides="1" tooltips="1" connect="1" arrows="1" fold="1" page="1" pageScale="1" pageWidth="827" pageHeight="1169" math="0" shadow="0">
      <root>
        <mxCell id="0" />
        <mxCell id="1" parent="0" />
        <mxCell id="gBsAKVMqxP2NZPQDlt_y-1" value="查阅文献资料" style="rounded=0;whiteSpace=wrap;html=1;" vertex="1" parent="1">
          <mxGeometry x="340" y="73" width="120" height="60" as="geometry" />
        </mxCell>
        <mxCell id="gBsAKVMqxP2NZPQDlt_y-2" value="" style="endArrow=classic;html=1;rounded=0;exitX=0.5;exitY=1;exitDx=0;exitDy=0;" edge="1" parent="1" source="gBsAKVMqxP2NZPQDlt_y-1">
          <mxGeometry width="50" height="50" relative="1" as="geometry">
            <mxPoint x="380" y="340" as="sourcePoint" />
            <mxPoint x="400" y="160" as="targetPoint" />
          </mxGeometry>
        </mxCell>
        <mxCell id="gBsAKVMqxP2NZPQDlt_y-3" value="确定该研究方向" style="rounded=0;whiteSpace=wrap;html=1;" vertex="1" parent="1">
          <mxGeometry x="340" y="160" width="120" height="60" as="geometry" />
        </mxCell>
        <mxCell id="gBsAKVMqxP2NZPQDlt_y-4" value="查阅相关资料" style="rounded=0;whiteSpace=wrap;html=1;" vertex="1" parent="1">
          <mxGeometry x="177" y="242" width="120" height="38" as="geometry" />
        </mxCell>
        <mxCell id="gBsAKVMqxP2NZPQDlt_y-5" value="查阅相关资料" style="rounded=0;whiteSpace=wrap;html=1;" vertex="1" parent="1">
          <mxGeometry x="530" y="242" width="120" height="39" as="geometry" />
        </mxCell>
        <mxCell id="gBsAKVMqxP2NZPQDlt_y-6" value="" style="endArrow=classic;startArrow=classic;html=1;rounded=0;exitX=1;exitY=0.5;exitDx=0;exitDy=0;entryX=0;entryY=0.5;entryDx=0;entryDy=0;" edge="1" parent="1" source="gBsAKVMqxP2NZPQDlt_y-4" target="gBsAKVMqxP2NZPQDlt_y-5">
          <mxGeometry width="50" height="50" relative="1" as="geometry">
            <mxPoint x="400" y="310" as="sourcePoint" />
            <mxPoint x="450" y="260" as="targetPoint" />
          </mxGeometry>
        </mxCell>
        <mxCell id="gBsAKVMqxP2NZPQDlt_y-7" value="" style="endArrow=classic;html=1;rounded=0;exitX=0.5;exitY=1;exitDx=0;exitDy=0;" edge="1" parent="1" source="gBsAKVMqxP2NZPQDlt_y-3">
          <mxGeometry width="50" height="50" relative="1" as="geometry">
            <mxPoint x="170" y="410" as="sourcePoint" />
            <mxPoint x="400" y="258" as="targetPoint" />
          </mxGeometry>
        </mxCell>
        <mxCell id="gBsAKVMqxP2NZPQDlt_y-9" value="" style="strokeWidth=2;html=1;shape=mxgraph.flowchart.annotation_2;align=left;labelPosition=right;pointerEvents=1;rotation=-90;" vertex="1" parent="1">
          <mxGeometry x="389" y="126" width="31.98" height="340.31" as="geometry" />
        </mxCell>
        <mxCell id="gBsAKVMqxP2NZPQDlt_y-10" value="确定论文题目" style="rounded=0;whiteSpace=wrap;html=1;" vertex="1" parent="1">
          <mxGeometry x="344.99" y="310" width="120" height="34" as="geometry" />
        </mxCell>
        <mxCell id="gBsAKVMqxP2NZPQDlt_y-11" value="" style="strokeWidth=2;html=1;shape=mxgraph.flowchart.annotation_2;align=left;labelPosition=right;pointerEvents=1;rotation=90;" vertex="1" parent="1">
          <mxGeometry x="381.49" y="173" width="47" height="396" as="geometry" />
        </mxCell>
        <mxCell id="gBsAKVMqxP2NZPQDlt_y-12" value="确定研究内容" style="rounded=0;whiteSpace=wrap;html=1;" vertex="1" parent="1">
          <mxGeometry x="155" y="397" width="120" height="28" as="geometry" />
        </mxCell>
        <mxCell id="gBsAKVMqxP2NZPQDlt_y-13" value="确定研究方法" style="rounded=0;whiteSpace=wrap;html=1;" vertex="1" parent="1">
          <mxGeometry x="542.01" y="390" width="120" height="31" as="geometry" />
        </mxCell>
        <mxCell id="gBsAKVMqxP2NZPQDlt_y-14" value="&lt;div style=&quot;&quot;&gt;&lt;span style=&quot;background-color: initial;&quot;&gt;实&lt;/span&gt;&lt;/div&gt;&lt;div style=&quot;&quot;&gt;&lt;span style=&quot;background-color: initial;&quot;&gt;验&lt;/span&gt;&lt;/div&gt;&lt;div style=&quot;&quot;&gt;&lt;span style=&quot;background-color: initial;&quot;&gt;法&lt;/span&gt;&lt;/div&gt;" style="rounded=0;whiteSpace=wrap;html=1;align=center;" vertex="1" parent="1">
          <mxGeometry x="521" y="451.86" width="44" height="195.14" as="geometry" />
        </mxCell>
        <mxCell id="gBsAKVMqxP2NZPQDlt_y-15" value="&lt;div style=&quot;&quot;&gt;文&lt;/div&gt;&lt;div style=&quot;&quot;&gt;献&lt;/div&gt;&lt;div style=&quot;&quot;&gt;研&lt;/div&gt;&lt;div style=&quot;&quot;&gt;究&lt;/div&gt;&lt;div style=&quot;&quot;&gt;法&lt;/div&gt;" style="rounded=0;whiteSpace=wrap;html=1;align=center;" vertex="1" parent="1">
          <mxGeometry x="643" y="447" width="42" height="200" as="geometry" />
        </mxCell>
        <mxCell id="gBsAKVMqxP2NZPQDlt_y-16" value="" style="strokeWidth=2;html=1;shape=mxgraph.flowchart.annotation_2;align=left;labelPosition=right;pointerEvents=1;rotation=90;" vertex="1" parent="1">
          <mxGeometry x="590.39" y="368" width="23.25" height="127.5" as="geometry" />
        </mxCell>
        <mxCell id="gBsAKVMqxP2NZPQDlt_y-18" value="" style="shape=curlyBracket;whiteSpace=wrap;html=1;rounded=1;flipH=1;labelPosition=right;verticalLabelPosition=middle;align=left;verticalAlign=middle;rotation=-90;" vertex="1" parent="1">
          <mxGeometry x="247.84" y="313" width="29.59" height="262.75" as="geometry" />
        </mxCell>
        <mxCell id="gBsAKVMqxP2NZPQDlt_y-20" value="配&lt;div&gt;置&lt;/div&gt;&lt;div&gt;所&lt;/div&gt;&lt;div&gt;需&lt;/div&gt;&lt;div&gt;工&lt;/div&gt;&lt;div&gt;具&lt;/div&gt;&lt;div&gt;和&lt;/div&gt;&lt;div&gt;调&lt;/div&gt;&lt;div&gt;试&lt;/div&gt;&lt;div&gt;环&lt;/div&gt;&lt;div&gt;境&lt;/div&gt;" style="rounded=0;whiteSpace=wrap;html=1;" vertex="1" parent="1">
          <mxGeometry x="140" y="454.5" width="29" height="187.86" as="geometry" />
        </mxCell>
        <mxCell id="gBsAKVMqxP2NZPQDlt_y-21" value="深&lt;div&gt;入&lt;/div&gt;&lt;div&gt;研&lt;/div&gt;&lt;div&gt;究&lt;/div&gt;&lt;div&gt;不&lt;/div&gt;&lt;div&gt;同&lt;/div&gt;&lt;div&gt;类&lt;/div&gt;&lt;div&gt;型&lt;/div&gt;&lt;div&gt;的&lt;/div&gt;&lt;div&gt;漏&lt;/div&gt;&lt;div&gt;洞&lt;/div&gt;" style="rounded=0;whiteSpace=wrap;html=1;" vertex="1" parent="1">
          <mxGeometry x="186" y="454" width="33" height="188.86" as="geometry" />
        </mxCell>
        <mxCell id="gBsAKVMqxP2NZPQDlt_y-22" value="编&lt;div&gt;写&lt;/div&gt;&lt;div&gt;漏&lt;/div&gt;&lt;div&gt;洞&lt;/div&gt;&lt;div&gt;利&lt;/div&gt;&lt;div&gt;用&lt;/div&gt;&lt;div&gt;模&lt;/div&gt;&lt;div&gt;板&lt;/div&gt;&lt;div&gt;和&lt;/div&gt;&lt;div&gt;代&lt;/div&gt;&lt;div&gt;码&lt;/div&gt;&lt;div&gt;片&lt;/div&gt;&lt;div&gt;段&lt;/div&gt;" style="rounded=0;whiteSpace=wrap;html=1;" vertex="1" parent="1">
          <mxGeometry x="233" y="456" width="37" height="186.86" as="geometry" />
        </mxCell>
        <mxCell id="gBsAKVMqxP2NZPQDlt_y-23" value="Vim&amp;nbsp;&lt;div&gt;环&lt;/div&gt;&lt;div&gt;境&lt;/div&gt;&lt;div&gt;优&lt;/div&gt;&lt;div&gt;化&lt;/div&gt;" style="rounded=0;whiteSpace=wrap;html=1;" vertex="1" parent="1">
          <mxGeometry x="288" y="456" width="32" height="186.86" as="geometry" />
        </mxCell>
        <mxCell id="gBsAKVMqxP2NZPQDlt_y-24" value="Docker&lt;div&gt;离&lt;/div&gt;&lt;div&gt;线&lt;/div&gt;&lt;div&gt;环&lt;/div&gt;&lt;div&gt;境&lt;/div&gt;&lt;div&gt;搭&lt;/div&gt;&lt;div&gt;建&lt;/div&gt;" style="rounded=0;whiteSpace=wrap;html=1;" vertex="1" parent="1">
          <mxGeometry x="336" y="453.57" width="41" height="186.86" as="geometry" />
        </mxCell>
        <mxCell id="gBsAKVMqxP2NZPQDlt_y-25" value="" style="shape=curlyBracket;whiteSpace=wrap;html=1;rounded=1;flipH=1;labelPosition=right;verticalLabelPosition=middle;align=left;verticalAlign=middle;rotation=90;" vertex="1" parent="1">
          <mxGeometry x="261.28999999999996" y="520" width="13.43" height="275.65" as="geometry" />
        </mxCell>
        <mxCell id="gBsAKVMqxP2NZPQDlt_y-26" value="网络ctf竞赛自动化攻击与环境部署方案的设计与实现" style="rounded=0;whiteSpace=wrap;html=1;" vertex="1" parent="1">
          <mxGeometry x="123" y="671.57" width="290.01" height="33" as="geometry" />
        </mxCell>
        <mxCell id="gBsAKVMqxP2NZPQDlt_y-28" value="" style="strokeWidth=2;html=1;shape=mxgraph.flowchart.annotation_2;align=left;labelPosition=right;pointerEvents=1;rotation=-90;" vertex="1" parent="1">
          <mxGeometry x="390.46" y="475.51" width="27.5" height="501.02" as="geometry" />
        </mxCell>
        <mxCell id="gBsAKVMqxP2NZPQDlt_y-29" value="" style="endArrow=none;html=1;rounded=0;exitX=0.25;exitY=1;exitDx=0;exitDy=0;strokeWidth=2;" edge="1" parent="1" source="gBsAKVMqxP2NZPQDlt_y-15">
          <mxGeometry relative="1" as="geometry">
            <mxPoint x="223" y="827.86" as="sourcePoint" />
            <mxPoint x="654" y="714" as="targetPoint" />
          </mxGeometry>
        </mxCell>
        <mxCell id="gBsAKVMqxP2NZPQDlt_y-30" value="" style="endArrow=none;html=1;rounded=0;exitX=0.5;exitY=1;exitDx=0;exitDy=0;strokeWidth=2;entryX=0.459;entryY=0.778;entryDx=0;entryDy=0;entryPerimeter=0;" edge="1" parent="1" source="gBsAKVMqxP2NZPQDlt_y-14" target="gBsAKVMqxP2NZPQDlt_y-28">
          <mxGeometry relative="1" as="geometry">
            <mxPoint x="547" y="740.86" as="sourcePoint" />
            <mxPoint x="547.8981000000003" y="729.8249999999999" as="targetPoint" />
          </mxGeometry>
        </mxCell>
        <mxCell id="gBsAKVMqxP2NZPQDlt_y-40" value="" style="edgeStyle=orthogonalEdgeStyle;rounded=0;orthogonalLoop=1;jettySize=auto;html=1;" edge="1" parent="1" source="gBsAKVMqxP2NZPQDlt_y-31" target="gBsAKVMqxP2NZPQDlt_y-33">
          <mxGeometry relative="1" as="geometry" />
        </mxCell>
        <mxCell id="gBsAKVMqxP2NZPQDlt_y-31" value="撰写论文" style="rounded=0;whiteSpace=wrap;html=1;" vertex="1" parent="1">
          <mxGeometry x="344.99" y="744" width="120" height="30" as="geometry" />
        </mxCell>
        <mxCell id="gBsAKVMqxP2NZPQDlt_y-38" value="" style="edgeStyle=orthogonalEdgeStyle;rounded=0;orthogonalLoop=1;jettySize=auto;html=1;" edge="1" parent="1" source="gBsAKVMqxP2NZPQDlt_y-33" target="gBsAKVMqxP2NZPQDlt_y-34">
          <mxGeometry relative="1" as="geometry" />
        </mxCell>
        <mxCell id="gBsAKVMqxP2NZPQDlt_y-33" value="指导教师指导论文" style="rounded=0;whiteSpace=wrap;html=1;" vertex="1" parent="1">
          <mxGeometry x="344.99" y="792.35" width="120" height="23.65" as="geometry" />
        </mxCell>
        <mxCell id="gBsAKVMqxP2NZPQDlt_y-39" value="" style="edgeStyle=orthogonalEdgeStyle;rounded=0;orthogonalLoop=1;jettySize=auto;html=1;" edge="1" parent="1" source="gBsAKVMqxP2NZPQDlt_y-34" target="gBsAKVMqxP2NZPQDlt_y-35">
          <mxGeometry relative="1" as="geometry" />
        </mxCell>
        <mxCell id="gBsAKVMqxP2NZPQDlt_y-34" value="修改论文" style="rounded=0;whiteSpace=wrap;html=1;" vertex="1" parent="1">
          <mxGeometry x="344.99" y="832" width="120" height="25" as="geometry" />
        </mxCell>
        <mxCell id="gBsAKVMqxP2NZPQDlt_y-35" value="论文定稿" style="rounded=0;whiteSpace=wrap;html=1;" vertex="1" parent="1">
          <mxGeometry x="344.99" y="881" width="120" height="32" as="geometry" />
        </mxCell>
        <mxCell id="gBsAKVMqxP2NZPQDlt_y-41" style="edgeStyle=orthogonalEdgeStyle;rounded=0;orthogonalLoop=1;jettySize=auto;html=1;exitX=0.5;exitY=1;exitDx=0;exitDy=0;" edge="1" parent="1" source="gBsAKVMqxP2NZPQDlt_y-5" target="gBsAKVMqxP2NZPQDlt_y-5">
          <mxGeometry relative="1" as="geometry" />
        </mxCell>
      </root>
    </mxGraphModel>
  </diagram>
</mxfile>
